<svg width="18" height="12" viewBox="0 0 18 12" fill="none" xmlns="http://www.w3.org/2000/svg">
<path fill-rule="evenodd" clip-rule="evenodd" d="M16.6667 0.666626H15.6667C15.1145 0.666626 14.6667 1.11434 14.6667 1.66663V10.3333C14.6667 10.8856 15.1145 11.3333 15.6667 11.3333H16.6667C17.219 11.3333 17.6667 10.8856 17.6667 10.3333V1.66663C17.6667 1.11434 17.219 0.666626 16.6667 0.666626ZM11.0001 2.99996H12.0001C12.5524 2.99996 13.0001 3.44767 13.0001 3.99996V10.3333C13.0001 10.8856 12.5524 11.3333 12.0001 11.3333H11.0001C10.4478 11.3333 10.0001 10.8856 10.0001 10.3333V3.99996C10.0001 3.44767 10.4478 2.99996 11.0001 2.99996ZM7.33341 5.33329H6.33341C5.78113 5.33329 5.33341 5.78101 5.33341 6.33329V10.3333C5.33341 10.8856 5.78113 11.3333 6.33341 11.3333H7.33341C7.8857 11.3333 8.33341 10.8856 8.33341 10.3333V6.33329C8.33341 5.78101 7.8857 5.33329 7.33341 5.33329ZM2.66675 7.33329H1.66675C1.11446 7.33329 0.666748 7.78101 0.666748 8.33329V10.3333C0.666748 10.8856 1.11446 11.3333 1.66675 11.3333H2.66675C3.21903 11.3333 3.66675 10.8856 3.66675 10.3333V8.33329C3.66675 7.78101 3.21903 7.33329 2.66675 7.33329Z" fill="white"/>
</svg>
