<svg width="14" height="14" viewBox="0 0 14 14" fill="none" xmlns="http://www.w3.org/2000/svg">
<path fill-rule="evenodd" clip-rule="evenodd" d="M8.65654 4.24266C8.65654 3.88458 8.40707 3.57141 7.90799 3.57141C7.25119 3.57141 6.92287 4.06348 6.92287 4.42149C6.90975 4.84629 7.1856 5.10357 7.65845 5.10357C8.2232 5.10357 8.65654 4.68988 8.65654 4.24266ZM5.96248 9.22067C5.68662 10.2049 5.97559 10.4286 6.36966 10.4286C6.76372 10.4286 7.78171 10.0926 8.71428 9.22012L8.4909 8.94042C8.1101 9.22005 7.72245 9.35466 7.60424 9.35466C7.51256 9.35466 7.47299 9.24289 7.56496 8.91861L8.0829 7.08364C8.27989 6.41253 8.21408 5.97635 7.82017 5.97635C7.34747 5.97635 6.24444 6.41575 5.28571 7.16497L5.48248 7.46702C5.78501 7.27681 6.29654 7.08371 6.4149 7.08371C6.50658 7.08371 6.49368 7.19548 6.4149 7.47505L5.96248 9.22067Z" fill="#BDBDBD"/>
<path d="M7 13C10.3137 13 13 10.3137 13 7C13 3.68629 10.3137 1 7 1C3.68629 1 1 3.68629 1 7C1 10.3137 3.68629 13 7 13Z" stroke="#BDBDBD"/>
</svg>
