<svg width="40" height="40" viewBox="0 0 40 40" fill="none" xmlns="http://www.w3.org/2000/svg">
<path d="M20.2741 16.5198C18.1512 16.5198 16.4241 18.2469 16.4241 20.3698C16.4241 22.4926 18.1512 24.2198 20.2741 24.2198C22.3969 24.2198 24.1241 22.4926 24.1241 20.3698C24.1241 18.2469 22.3969 16.5198 20.2741 16.5198ZM20.2741 22.9364C18.8588 22.9364 17.7074 21.785 17.7074 20.3698C17.7074 18.9545 18.8588 17.8031 20.2741 17.8031C21.6893 17.8031 22.8407 18.9545 22.8407 20.3698C22.8407 21.785 21.6894 22.9364 20.2741 22.9364Z" fill="#2FB0F6"/>
<path d="M30.8666 20.0728C30.6789 19.8043 26.2089 14 20.4999 14C14.7909 14 10.3207 19.8043 10.1333 20.0725C9.95558 20.3272 9.95558 20.6726 10.1333 20.9272C10.3207 21.1957 14.7909 27 20.4999 27C26.2089 27 30.6789 21.1956 30.8666 20.9275C31.0445 20.6728 31.0445 20.3272 30.8666 20.0728ZM20.4999 26.0517C16.2946 26.0517 12.6524 21.8674 11.5742 20.4995C12.651 19.1304 16.2856 15.5 20.4999 15.5C24.705 15.5 28.347 19.1319 29.4256 20.5005C28.3488 21.8696 24.7142 26.0517 20.4999 26.0517Z" fill="#2FB0F6"/>
</svg>
