<svg width="15" height="16" viewBox="0 0 15 16" fill="none" xmlns="http://www.w3.org/2000/svg">
<path d="M0 4.4C0.00510502 3.16329 0.805652 2.07461 1.97363 1.716V0L3.55254 0V1.716C4.91595 2.12792 5.74783 3.52163 5.47483 4.93656C5.20183 6.35149 3.91321 7.32506 2.4971 7.18628C1.081 7.04749 0.000365257 5.84172 0 4.4ZM3.94727 4.4C3.94727 3.73726 3.41709 3.2 2.76309 3.2C2.10908 3.2 1.57891 3.73726 1.57891 4.4C1.57891 5.06274 2.10908 5.6 2.76309 5.6C3.41709 5.6 3.94727 5.06274 3.94727 4.4ZM1.97363 16L1.97363 8H3.55254L3.55254 16H1.97363ZM4.73672 11.6C4.73709 10.1583 5.81772 8.95251 7.23382 8.81372C8.64993 8.67494 9.93855 9.64851 10.2116 11.0634C10.4845 12.4784 9.65267 13.8721 8.28926 14.284V16L6.71036 16V14.284C5.54237 13.9254 4.74183 12.8367 4.73672 11.6ZM8.68399 11.6C8.68399 10.9373 8.15381 10.4 7.49981 10.4C6.84581 10.4 6.31563 10.9373 6.31563 11.6C6.31563 12.2627 6.84581 12.8 7.49981 12.8C8.15381 12.8 8.68399 12.2627 8.68399 11.6ZM6.71036 8L6.71036 0L8.28926 0L8.28926 8H6.71036ZM9.47344 6C9.47381 4.55828 10.5544 3.35251 11.9705 3.21372C13.3867 3.07494 14.6753 4.04851 14.9483 5.46344C15.2213 6.87837 14.3894 8.27208 13.026 8.684L13.026 16H11.4471L11.4471 8.684C10.2792 8.32517 9.4788 7.23662 9.47344 6ZM13.4207 6C13.4198 5.34558 12.9017 4.81254 12.256 4.80179C11.6103 4.79103 11.0751 5.30652 11.053 5.96055C11.0309 6.61459 11.53 7.16597 12.175 7.2H11.946H12.2365C12.8905 7.2 13.4207 6.66274 13.4207 6ZM11.4471 2.4V0L13.026 0V2.4L11.4471 2.4Z" fill="#2FB0F6"/>
</svg>
