<svg width="40" height="40" viewBox="0 0 40 40" fill="none" xmlns="http://www.w3.org/2000/svg">
<path d="M13 16.4C13.0051 15.1633 13.8057 14.0746 14.9736 13.716V12H16.5525V13.716C17.9159 14.1279 18.7478 15.5216 18.4748 16.9366C18.2018 18.3515 16.9132 19.3251 15.4971 19.1863C14.081 19.0475 13.0004 17.8417 13 16.4ZM16.9473 16.4C16.9473 15.7373 16.4171 15.2 15.7631 15.2C15.1091 15.2 14.5789 15.7373 14.5789 16.4C14.5789 17.0627 15.1091 17.6 15.7631 17.6C16.4171 17.6 16.9473 17.0627 16.9473 16.4ZM14.9736 28L14.9736 20H16.5525L16.5525 28H14.9736ZM17.7367 23.6C17.7371 22.1583 18.8177 20.9525 20.2338 20.8137C21.6499 20.6749 22.9386 21.6485 23.2116 23.0634C23.4845 24.4784 22.6527 25.8721 21.2893 26.284V28L19.7104 28V26.284C18.5424 25.9254 17.7418 24.8367 17.7367 23.6ZM21.684 23.6C21.684 22.9373 21.1538 22.4 20.4998 22.4C19.8458 22.4 19.3156 22.9373 19.3156 23.6C19.3156 24.2627 19.8458 24.8 20.4998 24.8C21.1538 24.8 21.684 24.2627 21.684 23.6ZM19.7104 20V12H21.2893V20H19.7104ZM22.4734 18C22.4738 16.5583 23.5544 15.3525 24.9705 15.2137C26.3867 15.0749 27.6753 16.0485 27.9483 17.4634C28.2213 18.8784 27.3894 20.2721 26.026 20.684V28H24.4471V20.684C23.2792 20.3252 22.4788 19.2366 22.4734 18ZM26.4207 18C26.4198 17.3456 25.9017 16.8125 25.256 16.8018C24.6103 16.791 24.0751 17.3065 24.053 17.9606C24.0309 18.6146 24.53 19.166 25.175 19.2H24.946H25.2365C25.8905 19.2 26.4207 18.6627 26.4207 18ZM24.4471 14.4V12H26.026V14.4H24.4471Z" fill="#2FB0F6"/>
</svg>
