<svg width="9" height="11" viewBox="0 0 9 11" fill="none" xmlns="http://www.w3.org/2000/svg">
<path d="M5.38393 8.9375H5.86607C5.93001 8.9375 5.99133 8.91034 6.03653 8.86199C6.08174 8.81364 6.10714 8.74806 6.10714 8.67969V4.03906C6.10714 3.97069 6.08174 3.90511 6.03653 3.85676C5.99133 3.80841 5.93001 3.78125 5.86607 3.78125H5.38393C5.31999 3.78125 5.25868 3.80841 5.21347 3.85676C5.16826 3.90511 5.14286 3.97069 5.14286 4.03906V8.67969C5.14286 8.74806 5.16826 8.81364 5.21347 8.86199C5.25868 8.91034 5.31999 8.9375 5.38393 8.9375ZM8.67857 1.71875H7.02301L6.33998 0.500586C6.25426 0.347835 6.133 0.221438 5.98802 0.133709C5.84304 0.0459814 5.67928 -8.47213e-05 5.5127 1.16971e-07H3.4873C3.32079 -1.05009e-05 3.15711 0.0460909 3.01221 0.133815C2.8673 0.22154 2.74611 0.347898 2.66042 0.500586L1.97699 1.71875H0.321429C0.23618 1.71875 0.154424 1.75497 0.0941443 1.81943C0.0338647 1.8839 0 1.97133 0 2.0625L0 2.40625C0 2.49742 0.0338647 2.58485 0.0941443 2.64932C0.154424 2.71378 0.23618 2.75 0.321429 2.75H0.642857V9.96875C0.642857 10.2423 0.744451 10.5046 0.92529 10.698C1.10613 10.8914 1.3514 11 1.60714 11H7.39286C7.6486 11 7.89387 10.8914 8.07471 10.698C8.25555 10.5046 8.35714 10.2423 8.35714 9.96875V2.75H8.67857C8.76382 2.75 8.84558 2.71378 8.90586 2.64932C8.96614 2.58485 9 2.49742 9 2.40625V2.0625C9 1.97133 8.96614 1.8839 8.90586 1.81943C8.84558 1.75497 8.76382 1.71875 8.67857 1.71875ZM3.45214 1.09377C3.46289 1.07465 3.47809 1.05883 3.49626 1.04787C3.51443 1.03692 3.53494 1.03119 3.5558 1.03125H5.4442C5.46502 1.03122 5.4855 1.03697 5.50363 1.04793C5.52176 1.05888 5.53693 1.07468 5.54766 1.09377L5.89841 1.71875H3.10158L3.45214 1.09377ZM7.39286 9.96875H1.60714V2.75H7.39286V9.96875ZM3.13393 8.9375H3.61607C3.68001 8.9375 3.74132 8.91034 3.78653 8.86199C3.83174 8.81364 3.85714 8.74806 3.85714 8.67969V4.03906C3.85714 3.97069 3.83174 3.90511 3.78653 3.85676C3.74132 3.80841 3.68001 3.78125 3.61607 3.78125H3.13393C3.06999 3.78125 3.00868 3.80841 2.96347 3.85676C2.91826 3.90511 2.89286 3.97069 2.89286 4.03906V8.67969C2.89286 8.74806 2.91826 8.81364 2.96347 8.86199C3.00868 8.91034 3.06999 8.9375 3.13393 8.9375Z" fill="#333333"/>
</svg>
