<svg width="40" height="40" viewBox="0 0 40 40" fill="none" xmlns="http://www.w3.org/2000/svg">
<path d="M14.8016 21.1917C14.7727 20.9504 14.7578 20.7108 14.7578 20.5C14.7578 17.3534 17.3534 14.5732 20.5 14.5732C21.9677 14.5732 23.3418 15.3496 24.3525 16.2724L23.8457 16.7881C23.7315 16.9023 23.6875 17.0693 23.7315 17.2276C23.7842 17.3769 23.9072 17.4912 24.0654 17.5264C24.1539 17.5441 27.06 18.4806 26.8749 18.4434C27.1103 18.5218 27.4585 18.2707 27.3936 17.9249C27.3757 17.8363 26.7323 14.608 26.7695 14.7929C26.7344 14.6348 26.6201 14.503 26.4619 14.459C26.3126 14.4151 26.1455 14.459 26.0313 14.5732L25.6006 14.995C24.2735 13.7559 22.4511 13 20.5 13C16.378 13 13 16.378 13 20.5V20.5175C13 20.7653 13.0113 20.9567 13.0245 21.1032C13.042 21.2973 13.1851 21.4563 13.3762 21.4946L14.279 21.6751C14.5729 21.7339 14.8371 21.4875 14.8016 21.1917Z" fill="#2FB0F6"/>
<path d="M27.6265 19.5047L26.721 19.3202C26.4268 19.2602 26.1607 19.5068 26.1969 19.804C26.2282 20.0605 26.2422 20.3099 26.2422 20.5C26.2422 23.6464 23.6465 26.3929 20.5 26.3929C19.0323 26.3929 17.6582 25.6504 16.6475 24.7187L17.1543 24.2119C17.2685 24.0976 17.3125 23.9307 17.2685 23.7724C17.2158 23.6229 17.0928 23.5087 16.9346 23.4736C16.8461 23.4557 13.94 22.5194 14.1251 22.5566C13.9756 22.5303 13.8262 22.5742 13.7296 22.6796C13.6241 22.7763 13.5801 22.9345 13.6064 23.0751C13.6243 23.1636 14.2678 26.3625 14.2306 26.1776C14.2656 26.3359 14.3799 26.4677 14.5381 26.5115C14.7215 26.5575 14.8747 26.5019 14.9687 26.3973L15.3907 25.9755C16.7177 27.2148 18.5401 28 20.5 28C24.6221 28 28 24.622 28 20.5V20.4735C28 20.2787 27.9929 20.0875 27.9767 19.8974C27.96 19.7032 27.8175 19.5437 27.6265 19.5047Z" fill="#2FB0F6"/>
</svg>
