<svg width="15" height="15" viewBox="0 0 15 15" fill="none" xmlns="http://www.w3.org/2000/svg">
<path d="M3.7499 0.937475V0H0.468737C0.209848 0 0 0.209848 0 0.468737V3.7499H0.937475V1.59839L5.29204 5.95296L5.95296 5.29204L1.59839 0.937475H3.7499Z" fill="#838383"/>
<path d="M14.5303 0H11.2491V0.937475H13.4007L9.04608 5.29204L9.707 5.95296L14.0616 1.59839V3.7499H14.999V0.468737C14.999 0.209848 14.7892 0 14.5303 0Z" fill="#838383"/>
<path d="M14.0616 13.4007L9.707 9.04614L9.04608 9.70706L13.4007 14.0616H11.2491V14.9991H14.5303C14.7892 14.9991 14.999 14.7893 14.999 14.5304V11.2492H14.0616V13.4007Z" fill="#838383"/>
<path d="M5.29235 9.04248L0.93778 13.4017V11.2502H0.000305176V14.5314C0.000305176 14.7903 0.210153 15.0001 0.469043 15.0001H3.7502V14.0627H1.5987L5.95327 9.70809L5.29235 9.04248Z" fill="#838383"/>
</svg>
