<svg width="11" height="11" viewBox="0 0 11 11" fill="none" xmlns="http://www.w3.org/2000/svg">
	<path d="M10.8653 10.2188L8.22082 7.57429C8.87633 6.7751 9.27143 5.75143 9.27143 4.63571C9.27143 2.07653 7.1949 0 4.63571 0C2.07429 0 0 2.07653 0 4.63571C0 7.1949 2.07429 9.27143 4.63571 9.27143C5.75143 9.27143 6.77286 8.87857 7.57204 8.22306L10.2165 10.8653C10.3961 11.0449 10.6857 11.0449 10.8653 10.8653C11.0449 10.688 11.0449 10.3961 10.8653 10.2188ZM4.63571 8.34877C2.58612 8.34877 0.920408 6.68306 0.920408 4.63571C0.920408 2.58837 2.58612 0.920408 4.63571 0.920408C6.68306 0.920408 8.35102 2.58837 8.35102 4.63571C8.35102 6.68306 6.68306 8.34877 4.63571 8.34877Z" fill="#E7E7E7"/>
</svg>

