<svg width="40" height="40" viewBox="0 0 40 40" fill="none" xmlns="http://www.w3.org/2000/svg">
<path d="M18.1458 22.2063C17.743 22.5479 17.743 23.102 18.1458 23.4437C18.3471 23.6146 18.611 23.7 18.875 23.7C19.1389 23.7 19.4029 23.6146 19.6042 23.4437L22.6978 20.8189C22.7217 20.7986 22.7443 20.7773 22.7658 20.7552C22.7705 20.7503 22.7746 20.745 22.7792 20.74C22.7954 20.7225 22.8113 20.705 22.826 20.6865C22.8298 20.6816 22.8329 20.6765 22.8366 20.6717C22.8511 20.6525 22.8653 20.633 22.878 20.6129C22.8802 20.6094 22.8819 20.6057 22.8841 20.6022C22.8974 20.5804 22.9101 20.5583 22.9213 20.5354C22.9224 20.5331 22.9232 20.5307 22.9243 20.5283C22.9358 20.5044 22.9463 20.48 22.9552 20.4549C22.9562 20.4523 22.9567 20.4495 22.9577 20.4468C22.9662 20.4223 22.9739 20.3975 22.9798 20.3722C22.9814 20.3652 22.9822 20.3579 22.9836 20.3508C22.988 20.3298 22.9922 20.3088 22.9948 20.2874C22.9982 20.2584 23 20.2293 23 20.2C23 20.1707 22.9982 20.1416 22.9948 20.1127C22.9922 20.0911 22.9879 20.0699 22.9835 20.0487C22.982 20.0418 22.9814 20.0347 22.9797 20.0278C22.9737 20.0023 22.966 19.9774 22.9575 19.9528C22.9566 19.9502 22.9561 19.9477 22.9552 19.9451C22.9462 19.9199 22.9355 19.8954 22.924 19.8712C22.9229 19.8691 22.9222 19.8668 22.9211 19.8647C22.9099 19.8417 22.8971 19.8195 22.8837 19.7975C22.8817 19.7941 22.88 19.7906 22.8779 19.7873C22.865 19.767 22.8508 19.7475 22.8362 19.7282C22.8326 19.7234 22.8296 19.7184 22.8258 19.7136C22.8112 19.6952 22.7953 19.6775 22.779 19.66C22.7744 19.655 22.7704 19.6497 22.7656 19.6448C22.7442 19.6227 22.7216 19.6014 22.6977 19.5812L19.604 16.9563C19.2014 16.6146 18.5484 16.6146 18.1456 16.9563C17.7429 17.298 17.7429 17.852 18.1456 18.1937L19.4789 19.325H13.0313C12.4617 19.325 12 19.7168 12 20.2C12 20.6833 12.4617 21.075 13.0313 21.075H19.4791L18.1458 22.2063Z" fill="#2FB0F6"/>
<path d="M20.4377 12C17.9142 12 15.5664 13.3243 14.1573 15.5425C13.8725 15.9908 13.9851 16.5984 14.4089 16.8997C14.8327 17.2009 14.7153 16.9483 15 16.5C16.0651 14.8235 18.5311 13.5 20.4377 13.5C23.5881 13.5 26.5 16.6673 26.5 20C26.5 23.3327 23.588 26.5 20.4377 26.5C18.5368 26.5 16.0659 25.169 15 23.5C14.7142 23.0525 14.839 22.8133 14.4159 23.1157C13.9929 23.4181 13.8816 24.026 14.1674 24.4736C15.5777 26.6817 17.9217 28 20.4377 28C24.6076 28 28 24.4112 28 20C28 15.5888 24.6075 12 20.4377 12Z" fill="#2FB0F6"/>
</svg>
