<svg width="40" height="40" viewBox="0 0 40 40" fill="none" xmlns="http://www.w3.org/2000/svg">
<path d="M20.5635 13C17.4438 13 14.7622 14.9405 13.6607 17.7013L13.2216 16.9085C13.1653 16.8001 13.0805 16.7098 12.9767 16.6477C12.8729 16.5856 12.7543 16.5542 12.634 16.557C12.5214 16.5595 12.4114 16.592 12.3149 16.6511C12.2183 16.7102 12.1385 16.794 12.0833 16.8942C12.0281 16.9944 11.9994 17.1075 12 17.2224C12.0006 17.3373 12.0306 17.4501 12.0869 17.5496L13.2757 19.7211C13.3583 19.8707 13.4947 19.9816 13.656 20.0305C13.8173 20.0794 13.991 20.0624 14.1402 19.983L16.2543 18.8801C16.3337 18.8429 16.405 18.7897 16.4638 18.7237C16.5226 18.6578 16.5677 18.5803 16.5965 18.4961C16.6252 18.4119 16.637 18.3226 16.6311 18.2336C16.6252 18.1446 16.6017 18.0578 16.562 17.9783C16.5224 17.8988 16.4675 17.8283 16.4005 17.7711C16.3335 17.7138 16.2558 17.6709 16.1722 17.6451C16.0886 17.6192 16.0007 17.6108 15.9138 17.6205C15.827 17.6302 15.7429 17.6576 15.6667 17.7013L14.8899 18.108C15.8188 15.8902 18.0072 14.3235 20.5635 14.3235C23.9678 14.3235 26.7032 17.0858 26.7032 20.5C26.7032 23.9142 23.9678 26.6765 20.5635 26.6765C17.6513 26.6765 15.2255 24.6368 14.586 21.92C14.5457 21.7491 14.4405 21.6015 14.2936 21.5097C14.1466 21.4179 13.97 21.3895 13.8025 21.4306C13.635 21.4718 13.4904 21.5791 13.4005 21.7291C13.3105 21.879 13.2826 22.0593 13.323 22.2303C14.102 25.5399 17.0581 28 20.5635 28C24.6594 28 28 24.6391 28 20.5C28 16.3609 24.6594 13 20.5635 13ZM20.6446 16.295C20.5589 16.2959 20.4742 16.3142 20.3954 16.3487C20.3166 16.3832 20.2453 16.4334 20.1857 16.4962C20.126 16.559 20.0791 16.6333 20.0477 16.7147C20.0164 16.7961 20.0012 16.8831 20.0029 16.9706V20.5C20.0029 20.5993 20.0247 20.6973 20.0668 20.7868C20.1089 20.8763 20.1702 20.955 20.2461 21.017L22.4075 22.7817C22.474 22.836 22.5503 22.8765 22.6322 22.9007C22.714 22.9249 22.7997 22.9324 22.8844 22.9228C22.969 22.9132 23.051 22.8867 23.1257 22.8447C23.2003 22.8028 23.2661 22.7463 23.3193 22.6784C23.3726 22.6105 23.4122 22.5325 23.4359 22.449C23.4596 22.3655 23.4669 22.278 23.4575 22.1916C23.4481 22.1052 23.4221 22.0215 23.381 21.9453C23.3399 21.8692 23.2845 21.802 23.218 21.7477L21.2998 20.1829V16.9706C21.3016 16.8819 21.2859 16.7938 21.2537 16.7115C21.2215 16.6292 21.1734 16.5543 21.1123 16.4912C21.0512 16.4282 20.9783 16.3784 20.898 16.3447C20.8176 16.311 20.7314 16.2941 20.6446 16.295Z" fill="#2FB0F6"/>
</svg>
