<svg width="16" height="16" viewBox="0 0 16 16" fill="none" xmlns="http://www.w3.org/2000/svg">
<path d="M6.14576 10.2063C5.74302 10.5479 5.74302 11.102 6.14576 11.4437C6.34713 11.6146 6.611 11.7 6.875 11.7C7.13887 11.7 7.40287 11.6146 7.60418 11.4437L10.6978 8.81888C10.7217 8.79864 10.7443 8.77735 10.7658 8.75524C10.7705 8.75034 10.7746 8.74497 10.7792 8.73996C10.7954 8.72252 10.8113 8.70496 10.826 8.68647C10.8298 8.68163 10.8329 8.67649 10.8366 8.67165C10.8511 8.65246 10.8653 8.63303 10.878 8.61291C10.8802 8.60941 10.8819 8.60573 10.8841 8.60217C10.8974 8.58036 10.9101 8.55825 10.9213 8.53538C10.9224 8.53305 10.9232 8.53066 10.9243 8.52833C10.9358 8.50435 10.9463 8.47997 10.9552 8.45494C10.9562 8.45226 10.9567 8.44946 10.9577 8.44678C10.9662 8.42233 10.9739 8.39754 10.9798 8.37223C10.9814 8.36517 10.9822 8.35794 10.9836 8.35082C10.988 8.32982 10.9922 8.30882 10.9948 8.28735C10.9982 8.25842 11 8.22931 11 8.20003C11 8.17069 10.9982 8.14158 10.9948 8.1127C10.9922 8.09106 10.9879 8.06989 10.9835 8.04871C10.982 8.04177 10.9814 8.03471 10.9797 8.02783C10.9737 8.00234 10.966 7.97743 10.9575 7.95281C10.9566 7.95025 10.9561 7.94768 10.9552 7.94511C10.9462 7.91991 10.9355 7.89541 10.924 7.8712C10.9229 7.8691 10.9222 7.86683 10.9211 7.86473C10.9099 7.84174 10.8971 7.81946 10.8837 7.79753C10.8817 7.79415 10.88 7.79059 10.8779 7.78726C10.865 7.76696 10.8508 7.74748 10.8362 7.72817C10.8326 7.72339 10.8296 7.71837 10.8258 7.71365C10.8112 7.69515 10.7953 7.67748 10.779 7.66004C10.7744 7.65502 10.7704 7.64971 10.7656 7.64481C10.7442 7.6227 10.7216 7.60141 10.6977 7.58117L7.60404 4.9563C7.20137 4.61458 6.54837 4.61458 6.14563 4.9563C5.74288 5.29801 5.74288 5.852 6.14563 6.19372L7.47891 7.32503H1.03126C0.461731 7.32503 0 7.7168 0 8.20003C0 8.68326 0.461731 9.07502 1.03126 9.07502H7.47905L6.14576 10.2063Z" fill="#2FB0F6"/>
<path d="M8.43773 0C5.91422 0 3.56636 1.32433 2.15728 3.54247C1.87248 3.99077 1.98514 4.59843 2.40892 4.89965C2.8327 5.20094 2.71526 4.94831 3 4.5C4.06506 2.82347 6.53109 1.5 8.43773 1.5C11.5881 1.5 14.5 4.66735 14.5 8C14.5 11.3327 11.588 14.5 8.43773 14.5C6.53676 14.5 4.06586 13.169 3 11.5C2.71415 11.0525 2.83905 10.8133 2.41594 11.1157C1.9929 11.4181 1.8816 12.026 2.16745 12.4736C3.5777 14.6817 5.92174 16 8.43773 16C12.6076 16 16 12.4112 16 8C16 3.58882 12.6075 0 8.43773 0Z" fill="#2FB0F6"/>
</svg>
