<svg width="68" height="66" viewBox="0 0 68 66" fill="none" xmlns="http://www.w3.org/2000/svg">
	<g clip-path="url(#clip0)">
		<path d="M1.86001 39.6988C0.640005 41.7716 -0.00226715 44.1335 6.01308e-06 46.5388H1.00001C1.00136 44.309 1.59863 42.1201 2.73001 40.1988L1.86001 39.6988ZM10.06 27.6988C10.2823 27.3238 10.5983 27.0133 10.9771 26.7976C11.3558 26.5819 11.7842 26.4686 12.22 26.4688V25.4688C11.6131 25.4731 11.0176 25.6348 10.4918 25.938C9.96599 26.2412 9.5278 26.6756 9.22001 27.1988L10.06 27.6988ZM55.78 26.4988C56.2158 26.4986 56.6442 26.6119 57.023 26.8276C57.4017 27.0433 57.7177 27.3538 57.94 27.7288L58.8 27.2288C58.4922 26.7056 58.054 26.2712 57.5282 25.968C57.0024 25.6648 56.407 25.5031 55.8 25.4988L55.78 26.4988ZM65.27 40.1988C66.4014 42.1201 66.9987 44.309 67 46.5388H68C68.0023 44.1335 67.36 41.7716 66.14 39.6988L65.27 40.1988ZM67 62.8788C66.9983 63.2079 66.9232 63.5324 66.78 63.8288L67.67 64.2787C67.8882 63.8444 68.0013 63.3648 68 62.8788H67ZM66.78 63.8288C66.6025 64.1804 66.3309 64.4759 65.9955 64.6825C65.6601 64.889 65.2739 64.9985 64.88 64.9987V65.9987C65.4586 65.9979 66.0256 65.8368 66.5181 65.5331C67.0106 65.2295 67.4094 64.7953 67.67 64.2787L66.78 63.8288ZM3.50001 64.9987C3.11176 64.9995 2.7287 64.9095 2.38144 64.7359C2.03418 64.5622 1.73233 64.3098 1.50001 63.9987L0.700006 64.5987C1.02602 65.0334 1.44876 65.3862 1.93476 65.6292C2.42075 65.8722 2.95665 65.9987 3.50001 65.9987V64.9987ZM1.50001 63.9987C1.17737 63.565 1.00214 63.0393 1.00001 62.4987H6.01308e-06C0.00214933 63.2557 0.247553 63.9919 0.700006 64.5987L1.50001 63.9987ZM53.43 29.4988C53.9815 29.4992 54.5103 29.7186 54.9 30.1088L55.61 29.3988C55.3239 29.1124 54.984 28.8855 54.6099 28.7311C54.2358 28.5766 53.8348 28.4976 53.43 28.4988V29.4988ZM14 28.4988C13.2297 28.5071 12.4921 28.8114 11.94 29.3488L12.65 30.0588C12.8269 29.8809 13.0373 29.7399 13.269 29.6438C13.5007 29.5476 13.7492 29.4984 14 29.4988V28.4988ZM11.94 29.3488C11.7064 29.5853 11.5138 29.859 11.37 30.1588L12.27 30.5888C12.3639 30.3908 12.4926 30.2112 12.65 30.0588L11.94 29.3488ZM6.74001 39.8888C6.60083 40.1807 6.49032 40.4855 6.41001 40.7987L7.41001 41.0487C7.47109 40.797 7.55823 40.5524 7.67001 40.3188L6.74001 39.8888ZM6.12001 41.9988C6.02406 42.3777 6.06662 42.7784 6.24001 43.1288L7.13001 42.6788C7.08041 42.5397 7.08041 42.3878 7.13001 42.2488L6.12001 41.9988ZM6.24001 43.1288C6.38067 43.3933 6.59113 43.6143 6.84852 43.7676C7.1059 43.921 7.40039 44.0009 7.70001 43.9988V42.9988C7.5822 42.9975 7.46693 42.9643 7.36653 42.9027C7.26613 42.841 7.18438 42.7533 7.13001 42.6488L6.24001 43.1288ZM22.24 44.0287C22.945 44.0275 23.6322 44.2493 24.2034 44.6624C24.7747 45.0756 25.2005 45.6588 25.42 46.3288L26.42 46.0087C26.1355 45.1373 25.583 44.378 24.8413 43.8393C24.0996 43.3005 23.2067 43.0098 22.29 43.0087L22.24 44.0287ZM25.42 46.3288C25.5153 46.5995 25.6358 46.8606 25.78 47.1088L26.64 46.6088C26.5299 46.4184 26.4394 46.2174 26.37 46.0087L25.42 46.3288ZM26.34 48.0987C27.2042 49.6024 28.4907 50.8194 30.04 51.5987L30.49 50.7087C29.1119 50.021 27.97 48.9383 27.21 47.5987L26.34 48.0987ZM30.04 51.5987C31.2724 52.2016 32.6281 52.5098 34 52.4988V51.4988C32.7889 51.4994 31.5941 51.2187 30.51 50.6788L30.04 51.5987ZM34.77 52.5287C36.3361 52.5313 37.8676 52.0684 39.17 51.1988L38.61 50.3687C37.4737 51.1283 36.1368 51.5321 34.77 51.5287V52.5287ZM39.17 51.1988C39.9693 50.6624 40.6641 49.9846 41.22 49.1988L40.4 48.6187C39.9169 49.3051 39.3098 49.8953 38.61 50.3588L39.17 51.1988ZM42.61 47.2587C42.8516 46.9263 43.0404 46.5587 43.17 46.1687L42.22 45.8487C42.1227 46.145 41.9811 46.4249 41.8 46.6788L42.61 47.2587ZM43.17 46.1687C43.3781 45.5397 43.7809 44.9933 44.3203 44.6085C44.8597 44.2238 45.5075 44.0207 46.17 44.0287V42.9988C45.3033 42.9981 44.4584 43.27 43.7549 43.7761C43.0514 44.2822 42.5249 44.9968 42.25 45.8188L43.17 46.1687ZM60.54 43.9988C60.9389 43.9996 61.3289 43.8812 61.66 43.6588L61.11 42.8288C60.9401 42.9387 60.7423 42.9976 60.54 42.9988V43.9988ZM61.66 43.6588C62.0727 43.3893 62.3714 42.9769 62.4987 42.5008C62.6261 42.0246 62.5731 41.5182 62.35 41.0788L61.45 41.5188C61.5678 41.74 61.5983 41.9974 61.5353 42.24C61.4723 42.4826 61.3205 42.6927 61.11 42.8288L61.66 43.6588ZM56.11 30.0487C55.9693 29.8133 55.8015 29.5951 55.61 29.3988L54.9 30.1088C55.0326 30.2395 55.147 30.3875 55.24 30.5487L56.11 30.0487ZM61.93 40.2488L56.11 30.0487L55.24 30.5487L61.07 40.7488L61.93 40.2488ZM62.35 41.0788L61.95 40.2787L61.05 40.7188L61.45 41.5188L62.35 41.0788ZM46.12 43.9988H60.54V42.9988H46.12V43.9988ZM41.2 49.1788L42.59 47.1788L41.78 46.5987L40.38 48.5987L41.2 49.1788ZM34 52.4988H34.79V51.4988H34V52.4988ZM25.8 47.0788L26.36 48.0788L27.23 47.5788L26.66 46.5788L25.8 47.0788ZM7.70001 43.9988H22.22V42.9988H7.70001V43.9988ZM6.41001 40.7987L6.12001 41.9988L7.12001 42.2488L7.41001 41.0788L6.41001 40.7987ZM11.41 30.1588L6.74001 39.8888L7.64001 40.3188L12.27 30.5888L11.41 30.1588ZM53.43 28.4988H14V29.4988H53.43V28.4988ZM1.00001 62.4987V46.4988H6.01308e-06V62.4987H1.00001ZM64.88 64.9987H3.50001V65.9987H64.88V64.9987ZM67 46.5388V62.8788H68V46.5388H67ZM57.94 27.7288L65.27 40.1988L66.14 39.6988L58.8 27.2288L57.94 27.7288ZM12.22 26.4988H55.78V25.4988H12.22V26.4988ZM2.73001 40.1988L10.06 27.7288L9.20001 27.2288L1.86001 39.6988L2.73001 40.1988ZM9.63001 27.4788L9.20001 27.2288L9.63001 27.4788ZM58.37 27.4788L58.8 27.2288L58.37 27.4788ZM65.71 39.9988L66.14 39.7488L65.71 39.9988ZM11.82 30.3688L11.37 30.1588L11.82 30.3688ZM7.19001 40.0987L6.74001 39.8888L7.19001 40.0987ZM6.60001 42.0987L7.09001 42.2288L6.60001 42.0987ZM26.19 46.8388L25.76 47.0888L26.19 46.8388ZM40.79 48.8988L41.2 49.1887L40.79 48.8988ZM42.18 46.8988L41.78 46.6088L42.18 46.8988ZM61.9 41.2987L62.35 41.0788L61.9 41.2987ZM55.67 30.2987L56.11 30.0487L55.67 30.2987ZM61.5 40.4988L61.95 40.2787L61.5 40.4988Z" fill="#E7E7E7"/>
		<rect x="16.183" y="11.0346" width="12" height="3" rx="1.5" transform="rotate(30 16.183 11.0346)" stroke="#E7E7E7"/>
		<rect x="35.6406" y="0.5" width="12" height="3" rx="1.5" transform="rotate(90 35.6406 0.5)" stroke="#E7E7E7"/>
		<rect x="54.5963" y="13.8744" width="12" height="3" rx="1.5" transform="rotate(151.748 54.5963 13.8744)" stroke="#E7E7E7"/>
	</g>
	<defs>
		<clipPath id="clip0">
			<rect width="68" height="66" fill="white"/>
		</clipPath>
	</defs>
</svg>
