<svg width="163" height="135" viewBox="0 0 163 135" fill="none" xmlns="http://www.w3.org/2000/svg">
<path d="M45.7215 117.291C41.2866 117.308 36.8835 116.542 32.7149 115.028C17.7712 109.55 7.80265 100.923 3.08898 89.3898C-4.64762 70.4547 4.53844 50.7219 4.93222 49.8925C5.07865 49.5838 5.31593 49.3273 5.61224 49.1573C5.90856 48.9873 6.24976 48.9119 6.59013 48.9412C6.93049 48.9706 7.25375 49.1033 7.51658 49.3215C7.77942 49.5397 7.96928 49.8331 8.06071 50.1622C9.40798 53.9917 11.7852 57.3755 14.931 59.9415C18.7666 40.6913 35.5585 29.042 36.3042 28.5309C47.1391 19.8576 38.2899 2.62499 38.1994 2.4524C38.0208 2.11092 37.9653 1.7183 38.0423 1.3407C38.1194 0.9631 38.3242 0.623594 38.6223 0.379385C38.9205 0.135176 39.2937 0.00119176 39.6791 7.91272e-06C40.0644 -0.00117594 40.4384 0.130513 40.7381 0.372885C70.5768 24.5864 68.8609 48.9742 66.453 58.9947C68.6943 57.24 70.4355 54.9275 71.5024 52.2885C72.5693 49.6495 72.9245 46.7766 72.5323 43.9572C72.4798 43.5824 72.5557 43.2008 72.7477 42.8746C72.9397 42.5484 73.2365 42.2969 73.5897 42.1609C73.9429 42.0249 74.3317 42.0124 74.6929 42.1256C75.0541 42.2388 75.3663 42.471 75.5787 42.7842C78.817 47.8311 81.446 53.2438 83.4108 58.9093C86.0024 66.3297 86.6404 74.2922 85.2634 82.0305C83.8864 89.7689 80.5408 97.0226 75.5485 103.093L75.19 103.531C71.6007 107.86 67.0962 111.34 62.0006 113.719C56.905 116.099 51.3452 117.319 45.7215 117.291ZM33.8678 111.881C37.667 113.259 41.6799 113.957 45.7215 113.94C50.8499 113.966 55.9202 112.854 60.5677 110.686C65.2151 108.517 69.3242 105.346 72.5994 101.399L72.9345 100.98C77.5648 95.3535 80.6691 88.6296 81.9486 81.4557C83.2281 74.2818 82.6399 66.8993 80.2404 60.0186C78.9957 56.4774 77.4901 53.0334 75.7362 49.7148C73.893 59.7974 64.2461 64.4859 64.1288 64.5412C63.8166 64.689 63.4664 64.7367 63.126 64.6777C62.7857 64.6188 62.4718 64.4561 62.2275 64.2119C61.9832 63.9678 61.8203 63.6541 61.7611 63.3138C61.7019 62.9735 61.7493 62.6232 61.8968 62.3109C62.4263 61.1748 73.9617 35.3325 43.5984 7.28002C45.5355 13.9945 46.6934 24.4959 38.2849 31.2221C38.005 31.4198 20.2094 43.7997 17.7796 63.2275C17.7432 63.5116 17.6346 63.7817 17.4641 64.0119C17.2936 64.2421 17.0669 64.4247 16.8057 64.5424C16.5446 64.66 16.2576 64.7088 15.9722 64.6839C15.6868 64.6591 15.4125 64.5615 15.1756 64.4005C11.6732 61.9169 8.72293 58.735 6.51071 55.0552C4.31054 61.4915 0.912274 75.232 6.19903 88.1347C10.5457 98.7501 19.8541 106.735 33.8661 111.872L33.8678 111.881Z" fill="#E7E7E7"/>
<rect x="49.5" y="70.5" width="112" height="17" rx="4.5" stroke="#E7E7E7" stroke-width="3"/>
<path d="M105.811 47.9994C105.225 47.4136 104.275 47.4136 103.689 47.9994L94.1434 57.5453C93.5576 58.1311 93.5576 59.0809 94.1434 59.6667C94.7292 60.2524 95.6789 60.2524 96.2647 59.6667L104.75 51.1814L113.235 59.6667C113.821 60.2524 114.771 60.2524 115.357 59.6667C115.942 59.0809 115.942 58.1311 115.357 57.5453L105.811 47.9994ZM106.25 71.0601V49.0601H103.25V71.0601H106.25Z" fill="#E7E7E7"/>
<path d="M24.9393 133.061C25.5251 133.646 26.4749 133.646 27.0607 133.061L36.6066 123.515C37.1924 122.929 37.1924 121.979 36.6066 121.393C36.0208 120.808 35.0711 120.808 34.4853 121.393L26 129.879L17.5147 121.393C16.9289 120.808 15.9792 120.808 15.3934 121.393C14.8076 121.979 14.8076 122.929 15.3934 123.515L24.9393 133.061ZM24.5 110V132H27.5V110H24.5Z" fill="#E7E7E7"/>
<rect x="49.5" y="93.5" width="112" height="17" rx="4.5" stroke="#E7E7E7" stroke-width="3"/>
<rect x="49.5" y="116.5" width="112" height="17" rx="4.5" stroke="#E7E7E7" stroke-width="3"/>
<rect x="80" y="72" width="8" height="14" fill="white"/>
<rect x="62" y="95" width="20" height="14" fill="white"/>
<rect x="44" y="112" width="25" height="3" fill="white"/>
<path d="M44 115H52L50.9119 115.725C50.638 115.908 50.3827 116.117 50.1499 116.35L49 117.5L44 118V115Z" fill="white"/>
<circle cx="61" cy="79" r="3" fill="#E7E7E7"/>
<circle cx="61" cy="102" r="3" fill="#E7E7E7"/>
<circle cx="61" cy="125" r="3" fill="#E7E7E7"/>
<rect x="81" y="78" width="49" height="3" rx="1.5" fill="#E7E7E7"/>
<rect x="81" y="101" width="49" height="3" rx="1.5" fill="#E7E7E7"/>
<rect x="81" y="124" width="49" height="3" rx="1.5" fill="#E7E7E7"/>
</svg>
