<svg width="15" height="15" viewBox="0 0 15 15" fill="none" xmlns="http://www.w3.org/2000/svg">
<g clip-path="url(#clip0)">
<path d="M1.80164 8.19168C1.77269 7.95044 1.75781 7.7108 1.75781 7.5C1.75781 4.35345 4.35345 1.57322 7.5 1.57322C8.9677 1.57322 10.3418 2.34959 11.3525 3.27244L10.8457 3.78811C10.7315 3.90232 10.6875 4.06929 10.7315 4.22756C10.7842 4.37691 10.9072 4.49123 11.0654 4.52637C11.1539 4.54411 14.06 5.48058 13.8749 5.44338C14.1103 5.52177 14.4585 5.27069 14.3936 4.92485C14.3757 4.83627 13.7323 1.60801 13.7695 1.79295C13.7344 1.63479 13.6201 1.50295 13.4619 1.45901C13.3126 1.41506 13.1455 1.45901 13.0313 1.57322L12.6006 1.99505C11.2735 0.755882 9.4511 0 7.5 0C3.37795 0 0 3.37795 0 7.5L0 7.51751C0 7.76527 0.0113297 7.95673 0.0244904 8.10322C0.0419998 8.29731 0.185051 8.45627 0.376167 8.49461L1.27899 8.67508C1.57288 8.7339 1.83712 8.48751 1.80164 8.19168Z" fill="#2FB0F6"/>
<path d="M14.6265 6.50466L13.721 6.32018C13.4268 6.26021 13.1607 6.50683 13.1969 6.80404C13.2282 7.0605 13.2422 7.30986 13.2422 7.49995C13.2422 10.6464 10.6465 13.3929 7.49997 13.3929C6.03226 13.3929 4.65822 12.6504 3.64748 11.7187L4.15433 11.2118C4.26855 11.0976 4.31249 10.9307 4.26855 10.7724C4.21579 10.6229 4.09277 10.5087 3.93461 10.4736C3.84615 10.4557 0.940032 9.51938 1.12508 9.55657C0.975623 9.53025 0.826163 9.57419 0.729575 9.67959C0.624061 9.7763 0.580115 9.93445 0.606437 10.0751C0.62429 10.1636 1.26779 13.3625 1.2306 13.1776C1.26562 13.3359 1.37994 13.4677 1.5381 13.5115C1.72155 13.5575 1.87467 13.5019 1.96874 13.3973L2.39069 12.9755C3.71774 14.2148 5.5401 15 7.50002 15C11.6221 15 15 11.622 15 7.49995V7.47352C15 7.27874 14.9929 7.08751 14.9767 6.89742C14.96 6.70321 14.8175 6.54368 14.6265 6.50466Z" fill="#2FB0F6"/>
</g>
<defs>
<clipPath id="clip0">
<rect width="15" height="15" fill="white"/>
</clipPath>
</defs>
</svg>
