<svg width="16" height="15" viewBox="0 0 16 15" fill="none" xmlns="http://www.w3.org/2000/svg">
<path d="M8.56353 0C5.4438 0 2.76224 1.94049 1.66066 4.70129L1.22164 3.90855C1.16527 3.80009 1.08047 3.70978 0.976693 3.64769C0.87292 3.5856 0.754272 3.5542 0.634013 3.55699C0.52143 3.55955 0.411441 3.59198 0.314873 3.65111C0.218306 3.71023 0.138489 3.79401 0.0832803 3.89418C0.0280712 3.99435 -0.000627161 4.10747 1.03956e-05 4.2224C0.000647952 4.33733 0.0305994 4.45011 0.0869163 4.54963L1.27567 6.72106C1.35831 6.87068 1.49469 6.98164 1.65602 7.03052C1.81735 7.0794 1.99097 7.06237 2.14022 6.98301L4.25431 5.88006C4.33375 5.84289 4.405 5.78972 4.4638 5.72374C4.5226 5.65776 4.56773 5.58034 4.59647 5.49611C4.62521 5.41189 4.63698 5.32261 4.63107 5.23363C4.62515 5.14464 4.60168 5.0578 4.56205 4.97831C4.52242 4.89883 4.46746 4.82832 4.40047 4.77106C4.33348 4.71379 4.25584 4.67094 4.17221 4.64506C4.08858 4.61919 4.0007 4.61083 3.91382 4.62049C3.82695 4.63015 3.74289 4.65764 3.66669 4.70129L2.88994 5.108C3.81875 2.89023 6.00724 1.32353 8.56353 1.32353C11.9678 1.32353 14.7032 4.08578 14.7032 7.5C14.7032 10.9142 11.9678 13.6765 8.56353 13.6765C5.65132 13.6765 3.22549 11.6368 2.586 8.92004C2.54569 8.7491 2.4405 8.6015 2.29357 8.50972C2.14663 8.41793 1.96999 8.38948 1.8025 8.43062C1.63501 8.47176 1.49039 8.57911 1.40046 8.72907C1.31052 8.87903 1.28264 9.05931 1.32295 9.23025C2.10199 12.5399 5.05813 15 8.56353 15C12.6594 15 16 11.6391 16 7.5C16 3.36091 12.6594 0 8.56353 0ZM8.64458 3.29504C8.55885 3.29594 8.47415 3.31418 8.39538 3.3487C8.31661 3.38323 8.24532 3.43336 8.18565 3.49618C8.12598 3.55901 8.07911 3.63328 8.04775 3.71471C8.01638 3.79614 8.00115 3.88311 8.00293 3.97059V7.5C8.00288 7.59927 8.0247 7.69729 8.06679 7.78679C8.10888 7.87629 8.17016 7.95497 8.24609 8.01702L10.4075 9.78172C10.474 9.83605 10.5503 9.87647 10.6322 9.90067C10.714 9.92488 10.7997 9.93241 10.8844 9.92281C10.969 9.91321 11.051 9.88667 11.1257 9.84473C11.2003 9.80279 11.2661 9.74626 11.3193 9.67836C11.3726 9.61047 11.4122 9.53253 11.4359 9.44901C11.4596 9.36549 11.4669 9.27803 11.4575 9.19161C11.4481 9.10519 11.4221 9.02151 11.381 8.94535C11.3399 8.86918 11.2845 8.80203 11.218 8.74772L9.29976 7.1829V3.97059C9.30156 3.88195 9.2859 3.79384 9.2537 3.71149C9.2215 3.62915 9.17341 3.55425 9.1123 3.49124C9.05119 3.42823 8.9783 3.3784 8.89795 3.34469C8.81761 3.31099 8.73144 3.2941 8.64458 3.29504Z" fill="#2FB0F6"/>
</svg>
