<svg width="16" height="12" viewBox="0 0 16 12" fill="none" xmlns="http://www.w3.org/2000/svg">
<path fill-rule="evenodd" clip-rule="evenodd" d="M8.33045 2.60802C10.5463 2.60811 12.6775 3.45955 14.2835 4.98635C14.4044 5.10422 14.5977 5.10274 14.7168 4.98302L15.8728 3.81635C15.9331 3.75563 15.9667 3.67338 15.9662 3.58779C15.9657 3.50221 15.9311 3.42036 15.8701 3.36035C11.655 -0.679198 5.00522 -0.679198 0.79012 3.36035C0.729062 3.42032 0.694418 3.50215 0.693855 3.58773C0.693292 3.67331 0.726856 3.75558 0.78712 3.81635L1.94345 4.98302C2.06248 5.10292 2.25593 5.10441 2.37679 4.98635C3.98294 3.45945 6.11434 2.60801 8.33045 2.60802ZM8.33045 6.40368C9.54794 6.40361 10.722 6.85614 11.6245 7.67335C11.7465 7.78933 11.9388 7.78682 12.0578 7.66768L13.2125 6.50102C13.2733 6.43982 13.307 6.3568 13.3061 6.27054C13.3052 6.18427 13.2698 6.10196 13.2078 6.04202C10.4596 3.48563 6.20365 3.48563 3.45545 6.04202C3.39338 6.10196 3.35796 6.18432 3.35714 6.27061C3.35633 6.3569 3.39019 6.43991 3.45112 6.50102L4.60545 7.66768C4.72444 7.78682 4.91672 7.78933 5.03879 7.67335C5.94066 6.85668 7.11377 6.40419 8.33045 6.40368ZM10.6434 8.9575C10.6452 9.04401 10.6112 9.12741 10.5495 9.18802L8.55212 11.2037C8.49357 11.2629 8.41374 11.2963 8.33045 11.2963C8.24716 11.2963 8.16734 11.2629 8.10879 11.2037L6.11112 9.18802C6.04941 9.12737 6.01546 9.04394 6.01729 8.95743C6.01912 8.87092 6.05657 8.789 6.12079 8.73102C7.39636 7.65213 9.26455 7.65213 10.5401 8.73102C10.6043 8.78905 10.6417 8.87099 10.6434 8.9575Z" fill="white"/>
</svg>
